/* XPM */
static char *_79b66bd8613426df24fa643f72ad176PWWqiRAH2UdYDuwe[] = {
/* columns rows colors chars-per-pixel */
"71 71 250 2 ",
"   c None",
".  c #08060A",
"X  c #1B0C0D",
"o  c #160709",
"O  c #0D150C",
"+  c #14140D",
"@  c #1B120E",
"#  c #1B1A0E",
"$  c #111A0B",
"%  c #090817",
"&  c #140414",
"*  c #1A0D14",
"=  c #160B1B",
"-  c #1D0C1A",
";  c #150815",
":  c #0C1418",
">  c #131414",
",  c #1D1414",
"<  c #141A14",
"1  c #1C1A13",
"2  c #14131A",
"3  c #1B141B",
"4  c #1D1A1B",
"5  c #141A1C",
"6  c #250E08",
"7  c #22150D",
"8  c #231A0D",
"9  c #2A180C",
"0  c #3A1A0C",
"q  c #220B15",
"w  c #220C1B",
"e  c #270C18",
"r  c #241514",
"t  c #2B1614",
"y  c #241A14",
"u  c #2B1B14",
"i  c #24151A",
"p  c #2A141B",
"a  c #241B1A",
"s  c #2B1A1B",
"d  c #331918",
"f  c #17301A",
"g  c #29280C",
"h  c #232312",
"j  c #2C2415",
"k  c #24211A",
"l  c #2B231A",
"z  c #2A2A16",
"x  c #362516",
"c  c #383816",
"v  c #2F310D",
"b  c #1A1421",
"n  c #130B24",
"m  c #241A21",
"M  c #281722",
"N  c #240F20",
"B  c #2B2821",
"V  c #372323",
"C  c #223F23",
"Z  c #491C17",
"A  c #4C1D0D",
"S  c #552A0D",
"D  c #422116",
"F  c #4B2718",
"G  c #512514",
"H  c #572918",
"J  c #47290F",
"K  c #6C2B0D",
"L  c #79360C",
"P  c #662A16",
"I  c #772C16",
"U  c #6B3416",
"Y  c #7B3413",
"T  c #7D351B",
"R  c #773518",
"E  c #603F09",
"W  c #4D2A22",
"Q  c #1B441B",
"!  c #27461C",
"~  c #3A4816",
"^  c #3E511A",
"/  c #194323",
"(  c #254526",
")  c #344B28",
"_  c #1B6C28",
"`  c #256B2C",
"'  c #464A0D",
"]  c #4C4E1B",
"[  c #454A17",
"{  c #4C521A",
"}  c #485417",
"|  c #584813",
" . c #68460A",
".. c #724A14",
"X. c #6C5215",
"o. c #586817",
"O. c #566E1E",
"+. c #484D22",
"@. c #4D5424",
"#. c #556A22",
"$. c #64511E",
"%. c #5F5E5E",
"&. c #725D55",
"*. c #5F5C64",
"=. c #69615E",
"-. c #86360E",
";. c #98390C",
":. c #842E16",
">. c #833414",
",. c #873617",
"<. c #943815",
"1. c #A53B0E",
"2. c #AA3D13",
"3. c #E63E02",
"4. c #F23300",
"5. c #DF3E00",
"6. c #9A4017",
"7. c #AC440A",
"8. c #B6430D",
"9. c #AB4415",
"0. c #BA4413",
"q. c #B54617",
"w. c #BA510F",
"e. c #B77805",
"r. c #BA6E13",
"t. c #B85B29",
"y. c #946304",
"u. c #DC4B07",
"i. c #DD560B",
"p. c #C54616",
"a. c #DB4E12",
"s. c #D54E16",
"d. c #DD5414",
"f. c #DD521A",
"g. c #DB5614",
"h. c #CE4A0D",
"j. c #E44602",
"k. c #EC4403",
"l. c #E44B03",
"z. c #EA4C04",
"x. c #E44D0B",
"c. c #EB4D0C",
"v. c #EA450A",
"b. c #F24A09",
"n. c #E45304",
"m. c #EB5504",
"M. c #E5540D",
"N. c #EB530D",
"B. c #E45A0C",
"V. c #EC590C",
"C. c #E85A04",
"Z. c #F3550D",
"A. c #F4590D",
"S. c #FA580A",
"D. c #E44E12",
"F. c #EB4E14",
"G. c #E84B18",
"H. c #F14E19",
"J. c #F54E13",
"K. c #E55413",
"L. c #EB5413",
"P. c #E45A13",
"I. c #EB5913",
"U. c #E4541A",
"Y. c #EB531A",
"T. c #E45A1B",
"R. c #EA5A1B",
"E. c #F35413",
"W. c #FB5514",
"Q. c #F35A14",
"!. c #FC5A14",
"~. c #F3541A",
"^. c #F55B1B",
"/. c #FB5A1B",
"(. c #FB561B",
"). c #C57905",
"_. c #D3730B",
"`. c #EB660B",
"'. c #F47B08",
"]. c #EC6A13",
"[. c #E86515",
"{. c #F46413",
"}. c #EF6E0D",
"|. c #EB5522",
" X c #E95A23",
".X c #F45322",
"XX c #ED4F22",
"oX c #EA6728",
"OX c #F46728",
"+X c #EC6734",
"@X c #F46936",
"#X c #EB7539",
"$X c #F1733E",
"%X c #EE722A",
"&X c #805E52",
"*X c #EA7B46",
"=X c #F37A41",
"-X c #228834",
";X c #1BAB38",
":X c #1AAD37",
">X c #25B73D",
",X c #24AA35",
"<X c #93BC20",
"1X c #D78903",
"2X c #D98603",
"3X c #E68706",
"4X c #FA8707",
"5X c #EF9402",
"6X c #EA9907",
"7X c #F19402",
"8X c #F49C02",
"9X c #FA9B00",
"0X c #F8990A",
"qX c #F09613",
"wX c #FCA203",
"eX c #F9A406",
"rX c #90C915",
"tX c #89C421",
"yX c #EB8856",
"uX c #F38B5B",
"iX c #F08F4E",
"pX c #EE8762",
"aX c #F38B67",
"sX c #ED9664",
"dX c #F5966D",
"fX c #F09973",
"gX c #F9A67C",
"hX c #F6A886",
"jX c #F8B79C",
"kX c #F0B192",
"lX c #F8BCA8",
"zX c #F5BEB7",
"xX c #F9C2A7",
"cX c #EDC6B3",
"vX c #FAC6B2",
"bX c #F4CCB0",
"nX c #FFC09E",
"mX c #F8DACF",
"MX c #FCE4DB",
"NX c #FBE6D4",
"BX c #FFE6E5",
"VX c #FAF8ED",
"CX c #FAEDF6",
"ZX c #FCF5F5",
"AX c #FDFDF4",
"SX c #FEF6FC",
"DX c #F5FEFC",
"FX c #FCFDFD",
"GX c #F5FBF6",
"HX c #EEFFF5",
/* pixels */
"                                                                                                                                              ",
"                                                                                                                                              ",
"                                                                                                                                              ",
"                                                                                                                                              ",
"                                                                                                                                            ;X",
"                                                                                                                                              ",
"                    3 - 7                                                                                                       % * q !       ",
"                  3 y a k                                                                                                       q h * ]       ",
"            ;X    , 9 , s                                                                                                       * l * ]       ",
"            ,X    a r i y                                                                                                     } , a ; [       ",
"                  X y k 1 y 8 y t a a r ,           b u y r y s y y y y y y y y y y y y y y y y d @ c         z 3 t k r s s a a 8 y w ]       ",
"                  t i s 8 p t p , 1 r u -           ; r 1 a y i y y y y y y y y r r r r r r r a y N v         g 1 t # 1 1 r e r a r q {       ",
"                  t 3 p a i y y , 1 r u -           * k # 8 8 i r r r r r r r r r r r r r r r r 4 @ c         v a p a y 1 y 7 u b 1 * {       ",
"                  N k r 1 r r 1 r y y r 2           e s i s u y a a a a a a a a u u y y y y y u u t c         h r s @ 8 s i r 7 1 # * @.      ",
"                  3 i s # h i m p a a p p l z l l ..2X2X2X2X2X2X1X1X1X1X1X1X1X1X1X2X2X2X2X2X1X1X3X2Xe.z c v B y y 3 a 8 9 7 a 3 a u * {       ",
"                  , d r # y p 8 8 # 1 y y y 8 M .  .eX8X8X8X0X9X9X9X9X9X9X9X9X9X9X9X9X9X9X0X0X8X5XwX1X> r N 1 r 8 a r r t s b y r y ; }       ",
"                  , M 9 i s r r u N u d r p a t 2 X.8X5X0X5X8X7X5X7X7X7X7X7X7X7X0X5X8X7X7X7X5X8XqX9X_.b t s r u t a < m a 7 9 u t s N {       ",
"                  < ; 2 4 - i l 2 r * , # 1 > 3 &  .eX8X8X8X7XeX8X8X8X8X8X8X8X8X8X8X9X8X8X8X7X9X9XwXe.1 O 1 y @ > @ 8 @ 1 u r a X , o '       ",
"                          j r y , y.e.e.r.r.e.e.e._.].`.`.}.`.[.].].].].].[.].].`.}.`.[.].{.`.].{.].[.1.9.7.7.9.q.2.0.J i p , }               ",
"                          z X y r ).eXwXeXwXwX0XwX'.F.K.K.x.~.c.K.K.L.F.F.F.F.F.D.G.L.L.L.K.x.U.F.K.M./.W./.^.~.c.W./.F 3 a ,                 ",
"                          l r B 2 ).8X5X5X7X7X0XqX'.L.R. XK.K.N.I.L.L.K.K.K.L.L.L.Y.K.M.L.L.I.N.P.Q.n.K.F.D.M.L.I.K.N.J , 9 o                 ",
"                          k t r 2 ).wX7X0X8X8X6XeX'.v.k.b.x.x.T.L.L.L.L.L.L.L.L.N.L.Z.N.K.M.N.v.v.k.z.P.M.I.n.L.N.M.V.H - a 2                 ",
"                          l 7 u # ).eX5X8X3X}.'.}.iXhXhXhXfXz.N.L.L.P.P.P.P.K.K.L.L.M.K.Y.D.#XhXkXhXdXa.K.L.M.I.K.Y.I.H r 8 -                 ",
"                          g u r r ).wX4X9X].G.M.k.dXFXFXFXMXc.Y.L.L.I.I.M.M.M.N.Y.L.n.B.E.j.sXAXAXFXMXI.N.L.U.Z.x.~.V.A i a *                 ",
"                          z 9 t i ).8XqX8X'.M.^.c.sXZXZXVXmXN.E. XU.L.M.Y.I.N.L.K.M.Y.R.T.v.dXAXGXZXmXM.P.L.~.M.N.U.I.J i u + `               ",
"          ;X,X:X          k = 2 n e.wX6XeX`.k.F.4.sXFXFXDXMXz.l.u.c.M.L.L.N.D.E.U.Q.D.j.n.j.aXFXSXFXMXj.v.l.l.K.H.N.^.x 2 i ; _   >X          ",
"          ;X:X:X           . .E U _.4X'.4XiXyXaXpXhXxXvXlXjXaXuXpXuXV.N.H.Y.XXP.d.n.#XyXyXyXgXvXcXbXjXuXaXuXaXP.N.I.Y.>.H P K +.-X  _         ",
"          ,X  >X-X, w * p 7X0XeXeX{.v.M.j.lXAXSXFXxX3.M.k.$XDXAXFXZXoXM.U.M.R.M.I.x.jXAXFXFXzX3.B.5.%XAXAXAXFXoXM.f.N.S.I.A.!.:.X w % }       ",
"                  6 a 1 g 2X0X3X8XOX|.K.v.lXAXFXFXlXl.`.z.=XSXFXGXAXOXb.T.N.Y.L.^.u.kXAXVXVXcXc.Y.Y.#XDXGXAXGXoXz.Q.K.c.T.F.E.T < u p ]   tX<X",
"                  r s 2 p 5X0X0X9X`.K.B.z.lXAXVXFXlX3.R.K.=XFXDXDXAXoXx.L.N.L.N.M.b.lXAXFXDXxXk.I.a.#XFXFXFXZX XL.M.K.K.M.L.W.L 2 r * [   rXrX",
"                  3 i 4 x 2X5X4X4X[.f.P.k.lXGXAXDXlXb. Xx.#XFXAXFXVXOXu.E.U.F.P.P.z.kXAXFXGXnXj. XJ.#XDXAXFXVXOXn.M.I.L.L.M.!.L 5 u * {   tXrX",
"                  9 r a 9 G.V.M.V.F.M.L.k.jXFXZXAXxXj.B.z.$XAXFXAXZXOXx.P.M.N.Y.U.v.jXAXAXGXcXl.B.l.$XAXSXAXVXOXK.K.N.c.P.K.Q.>., u ; }   <XrX",
"                  , a y u d.I.D.K.L.V.[.j.jXAXZXFXjXl.I.x.$XFXDXAXSX+XM.P.d.L.T.K.z.jXAXFXFXlXz.T.c.=XAXDXAXCX+XM.Y.K.L.L.K.A.Y > u = {     rX",
"                  , i y u a.I.L.I.L.N.L.v.jXGXVXDXlXu.Q.j.*XSXAXDXSX+XD.Z.I.N.N.Y.k.jXDXVXFXvXk.Q.n.*XSXFXFXAXoXc.U.L.M.L.K.A.>.1 s X ]       ",
"                  , i y u a.I.K.P.U.E.E.z.jXFXCXAXxXx.R.~.*XHXFXAXZXOXP.x.Y.P.P.E.l.jXSXSXSXcXa.g.N.*XAXZXSXVX+XN.P.L.K.K.K.A.>.> s X {       ",
"                  , i y u a.I.K.N.K.P.T.m.+X@XOXR.fXNXBXMXbX+X+XoX@XB.P.E.c.Y.M.T.u.[.@X%X XdXNXBXBXbX@X%X@X#XN.M.K.K.L.L.K.W.Y 2 u = ]       ",
"                  , i , u a.I.L.R.L.x.U.Z.K.j.M.k.dXFXAXFXNXn.x.c.F.F.c.T.K.m.K.I.I.K.F.M.j.dXDXAXSXNXl.n.x.b.Y.K.I.K.L.L.P.W.Y 2 u - {       ",
"                  , i , u a.I.K.Y.E.L.Y.Y.K.Q.P.k.sXHXFXSXmXN.R.~.I.K.|.M.L.c.M.J.U.M.L.L.k.fXZXSXFXmXM.~.U.N.R.L.K.L.K.I.K.Q.>.> a X }       ",
"                  , i y u a.I.I.K.N.K.K.|.K.L. Xj.dXSXFXAXMXN.c.L.I.m.!.N.E.Q.V.A.~.L.Q.P.c.dXAXFXGXMXx.L.B.V.M.L.K.L.P.I.M.E.L 2 a * }       ",
"                  , i a u a.M.L.L.N.P.c.Y.M.L.L.E.t.%.=.%.&.m.Y.U.x.U H P P S P H G 7.W.Y.b.t.*.=.%.&XZ.U.K.E.N.L.L.L.L.N.M.E.L 3 s - ]       ",
"                  = a 1 t f..XL.H.I.E.J.M.M.~.M.^.;.. o . A Y.I.N.D.u > i + + + > : ;.E.|.Q.;.. o o 0 Y.I.E.M.K.K.L.P.Y.D.Y.OXL + y q [       ",
"                  m u 4 V h.I.n.m.M.d.P.P.L.L.K.!.;.2 l s F N.z.N.a.h 1 a t m a u : ;.Q.s.A.2.: s a F F.B.L.L.H.U.L.n.N..XL.N.R - l , (       ",
"                  o X - 6 M.!./.I.~.F.M.L.L.M.K.~.6.2 r , F (.S.W. Xx 1 s r r u p < ;.!.E.S.9.< 9 , G ~.m.Y.M.Y.I.L.V.B.N.S.{.T = = * /   ,X;X",
"                      #.#.,.>.:.T s.Z.M.F.L.n.L.!.6.> y 8 0 <.Y >.Y t 1 t 1 y r s 8 S >.,.-.P + u < x |.M.K.M.L.m.L.E.1.T Y >.X.          :X,X",
"                          h 2 2 2 7.A.K.K.L.N.L.Q.;.2 p t 2 > n $ 7 3 4 r 1 a m y , , 2 5 > 4 m 9 + F L.R.K.P.N.N.G.E.G 2 3 .                 ",
"                          z @ 8 b 0.E.U.K.Y.L.K.S.2., a a s 8 d y p a i r y , p 8 a u t t y 8 i s 1 G Z.L.N.U.M.Y. XQ.H + d 3                 ",
"                          B i s , 0.^.K.I.K.N.U.!.6.. > < @ 7 4 a r 8 9 8 t a r 1 m r r r M 8 > 3 2 Z L.F.I.D.V.M.I.Z.H 3 r ,                 ",
"                          z t r 1 0.Q.N.L.P.N.K.R.7.P I P W s r r a r 3 m 3 r u r i r a 1 , 0 P K H L B.M.I.Y.M.L.M.Q.F , a X                 ",
"                          j , r 1 0.Z.K.P.M.L.M.I.Y.I.A.S.p.8 r r r i 8 y 8 y y 4 r r u a 2 I S.~.E.I.L.L.L.L.I.I.K.E.G 3 r *                 ",
"                          j , t > 0.Z.K.P.I.E.L.K.U.L.D.Z.p.4 t a a i t p r i a i r i y a 2 P Q.F.L.K.K.K.K.N.M.I.K.E.G 3 r *                 ",
"                          z , t < 0.Z.K.K.M.F.N.I.L.M.U.W.p.> 8 1 1 1 # 1 # r r q 1 < r r + K W.F.N.M.L.L.L.L.L.I.P.E.G 2 r *                 ",
"                          j , u , 0.Z.K.K.M.L.M.K.K.N.K.Q.p.x x 0 x D Z D D D D D x x 0 D V T M.M.I.K.K.K.K.L.L.I.P.E.G 2 r *                 ",
"                          j , t , 0.Q.K.K.M.L.B.M.Q.U.Y.L.P.s.K.K.K.K.K.K.K.K.K.M.L.Y.K.B.n.M.L.K.K.L.L.K.M.M.N.I.P.E.G 2 y *                 ",
"                          j , p 1 0.Q.Y.L.M.E.K.M.K.F.L.M.I.L.~.L.L.L.K.M.K.I.L.N.L.Y.N.E.Y.Y.g.L.K.E.L.I.L.I.L.I.K.E.G , y *                 ",
"                          z , s , 0.A.L.L.L.L.K.Q.E.M.L.N.M.N.M.K.K.L.L.N.L.I.K.K.K.I.L.I.M.I.~.M.M.L.K.K.K.U.Y.I.K.E.G , y * O.              ",
"                          z i s s p.Z.F.L.I.L.g.U.L.N.U.L.M.U.Q.K.P.M.K.M.K.L.L.Y.L.N.M.I.L.c.K.L.K.E.L.I.L.K.L.I.K.Z.G , y * O.              ",
"o.h z k           V x v J w.a.h.h.K.T.K.Q.M.K.N.H.E.K.Y.N.N.Y.K.M.B.F.U.Y.D.L.N.i.T.Q.M.L.E.I.Y.I.M.K.b.B.XXY.K.n.B.J.W 2 u b o.        z c j ",
"{ o M & {         * r 3 M a.!.~.V.Y.Y.n.M.K.K.P.B.M.K.I.L.I.I.F.F.M.J.E.I.Q.K.K.L.F.c.M.P.I.M.V.L.N.I.U.I.N.L.B.L.R.J.F $ a X #.        * b * ",
"@.- j 3 {         - h r s i.I.f.m.H.Z.V.Y.|.P.f.n.K.L.N.M.i.n.L.|.T.E.c.i.K.i.B.L.I.L.E.N.K.M.N.G.E.K.f.Y.L. XK.P.n.E.H # s X `       _ t j t ",
"{ & @ = '         e 1 + p f.N.E.M.Y.K.M.Z.N.m./.(.H.J.M.I.Y.L.F.z.Z.M.S.[.Y.E.E.N.i.g.U.Y.~.~.Y.W.Z.K.E.L.M.K.M.b.Z.T.F % > 6 _ >X>X>X` o 3 X ",
"          [ +.' | 7.7.9.9.u.T.N.P.L.M.P.^.<.H P S <.I.P.N.F.F.B.P.U.U P P P p.E.Y.N.c.L.L.Z.8.S P S Y L.L.L.M.Y.P.N.L.0.9.7.q.$./ ! Q )       ",
"          & * - Z R.!.L.~.I.M.E.d.L.F.L.W.K : 3 > P M.U.I.L.L.C.L.a.r : : > q.A.d.I.I.K.N.A.1.> b : D Z.M.L.m.K.U.Z.m.L.!.E.Z.-.= 9 & +.      ",
"          3 l 1 S B.d.f.v.M.E.K.U.N.M.f.Q.U # u 5 U A.M.N.K.U.U.H.K.d s u 2 p.Z.n.L.K.U.K.A.1.3 u 1 D I.g.U.N.K.L.c.P.K.D.U.V.Y > l * @.      ",
"          & 7 % Z S.W.W.!.I.W.^.Q.W.S.Q.S.I & - & P !.Q.!.W.S.(.^.i.d ; X n p./.I..XW.A.A.!.1.% w ; A W.!.A.W.^.W.!.Q.S.^.E.!.Y % , & ~       ",
"                o.,.<.,.:.,.<.>.>.>.:.>.T ..O.o.o.X.:.,.>.T -.:.-.>.o.      L <.<.-.<.>.,.,...      o.>.T >.,.,.>.>.-.>.:.,.>.X.O.            ",
"                  q > > > + : 2 + @ p 2 %           % O 2 O + r + 1         ) % 2 > b > $ % +.        X 5 < + O > 3 , 2 2 > %                 ",
"                  r 1 s k 9 1 s s y a u *           - j t a 1 y a s         c i l 9 t u l @ }         u u M t s a r r a 9 9 3                 ",
"                  3 3 - = q q p , ; 2 3 &           & 6 p r q 2 * r         c ; q 2 , 6 3 & '         q + w * , X r , i r q w                 ",
"                  ~ [ ] ] Q ( ( Q ~ } [ [           f ~ ! Q | ^ ~ [           ~ [ } ! C ) C           ' [ ' ' ' ' [ ^ ! ( ! f                 ",
"                                                        :X                                                                                    ",
"                                                                                                                                              "
};
