/* XPM */
static char *_de21de89ee04cd2f7faa553b242e8fdZrn0KjH2EqOIcYk7[] = {
/* columns rows colors chars-per-pixel */
"71 71 111 2 ",
"   c #CEAE73",
".  c #D3AF7F",
"X  c #C7B175",
"o  c #CDB275",
"O  c #CDB877",
"+  c #CDB47B",
"@  c #D2B476",
"#  c #D1B57A",
"$  c #CDAD83",
"%  c #CFAF88",
"&  c #D1A580",
"*  c #D4AD85",
"=  c #D9AE86",
"-  c #D5AF88",
";  c #DBAF89",
":  c #CEB484",
">  c #CFB882",
",  c #CDB589",
"<  c #D5B186",
"1  c #DAB286",
"2  c #D7B881",
"3  c #D8B982",
"4  c #D6B38A",
"5  c #DBB38B",
"6  c #D6B98D",
"7  c #DBB98E",
"8  c #D6B491",
"9  c #DCB691",
"0  c #D7BA90",
"q  c #DCBB92",
"w  c #DFBD98",
"e  c #E5AF8D",
"r  c #E1B38D",
"t  c #E3B691",
"y  c #EAB492",
"u  c #E2BD95",
"i  c #E5BF98",
"p  c #D9C283",
"a  c #DBCB8F",
"s  c #DEC196",
"d  c #DEC39A",
"f  c #E1C196",
"g  c #E3C39B",
"h  c #EAC49D",
"j  c #E4CB9D",
"k  c #E9C99F",
"l  c #E6D496",
"z  c #E9D797",
"x  c #EAD09F",
"c  c #E8D89A",
"v  c #EEE09F",
"b  c #E1C5A0",
"n  c #E5CEA2",
"m  c #EBCCA3",
"M  c #F0CFA4",
"N  c #F0CFAC",
"B  c #E6D1A4",
"V  c #EAD2A6",
"C  c #EDDFA1",
"Z  c #EDD5AA",
"A  c #EED9AD",
"S  c #F1D1A7",
"D  c #F1D5AB",
"F  c #F2D9AE",
"G  c #F9DAAE",
"H  c #EED6B0",
"J  c #EFDCB1",
"K  c #F3D5B1",
"L  c #F4DDB2",
"P  c #FADDB4",
"I  c #F5DFBA",
"U  c #ECE2A3",
"Y  c #EEE4A9",
"T  c #F1E4A9",
"R  c #F6E1B5",
"E  c #FAE2B6",
"W  c #FDE9B7",
"Q  c #F7E4B9",
"!  c #F6E5B9",
"~  c #F7E6B8",
"^  c #F4E5BA",
"/  c #F9E3B9",
"(  c #F9E3BA",
")  c #FAE4B8",
"_  c #FBE6B9",
"`  c #FCE5B9",
"'  c #FEE6BA",
"]  c #FAE7BC",
"[  c #FCE7BC",
"{  c #F6E9BC",
"}  c #F9E8BA",
"|  c #FDE8BB",
" . c #FDEDBA",
".. c #FBE9BD",
"X. c #FCEABC",
"o. c #FAECBD",
"O. c #FEECBE",
"+. c #F4E6C1",
"@. c #FCE4C0",
"#. c #FDE6C1",
"$. c #F7E8C1",
"%. c #FAEBC0",
"&. c #FCEBC0",
"*. c #FCEAC2",
"=. c #FAEDC0",
"-. c #FFECC1",
";. c #FCEFC2",
":. c #FFEEC2",
">. c #FEECC8",
",. c #FFF0C4",
"<. c #FFF1C4",
/* pixels */
"F F F F F F F F F F F F F F F F F F F F F F F F F F F F F F F F F F F F ..F B n n F X.X.] X.X.&.-.F 4 5 5 7 E -.X.F F F F F F F F F D F F F F ",
"F F F F F F F F F F F F F F F F F F F F F F F F F F F F F F F F F F F F X.L n V V L -.&...X.X.X.-.L 4 5 5 7 E -._ F F F F F F F D D F F F F F ",
"F F F F F F F F F F F F F F F F F F F F F F F F F F F F F F F F F F F F X.A n V V L &.&...X.X.X.O.L 4 5 5 5 E O...F F F F F F F F F D F F F F ",
"F F F F F F F F F F F F F F F F F F F F F F F F F F F F F F P _ E [ ` E X.L Z F Z L X.X.X.X.X.&.X.P 4 5 5 4 ` X.X.R F F F F F F F F F D F F F ",
"L F F F F F F F F F F F F F F F F F F F F F F F F F F F L V n n A / &.X.X.[ _ [ _ ` -.&.X.X...X.X.E 4 5 5 4 ` X.[ ` F F F F F F A Z L X.X.&.U ",
"F F F F F F F F F F F F F F F F F F F F F F F F F F F R _ V V Z V / -.X.X.X.X.&.X.X.&.X.X.&...X.O.E 4 5 = 4 ` O.X.X.L F L ` F n n j L X.X.&.U ",
"F F F F F F F F F F F F F F F F F F F F F F F F F F _ O.` V n n V / -.....X.[ X.X.` X.X.X.X.] X.X.L 7 5 5 7 E X.X.X.X.X.&.X.L V m j L &...{ U ",
"F F F F F F F F F F F F F F F F F F F F F F F F F F X.} _ Z Z V Z _ X.X.&.&...&.X.` &.X.[ [ Q ..} F 7 5 5 7 L } / ` _ / _ _ L V V x L -.....U ",
"F F F F F F F L F F F F F F F F F F F F F F F F F / =.-.X.[ / Q [ X.&.X.X.X.X.X.X.[ [ X.-.R < r 5 u E ` / P w 7 5 7 0 q 7 - m [ [ W #.X.&.&.T ",
"F F F L F F F F F F F F F F F F F F F F F F F F F X.Q { &.[ ] ......X.X.X.X.X.X.O.X.X.&...Z * r * 0 X.-.X.` 7 * t 1 * = 5 5 V ,.-. .#.....%.U ",
"F F L F F L F F F F F F F F F F F F F F F F F F F -...Q X.X.-.............} X.X..._ _ -.-.F 4 5 5 w X..._ X.w 5 7 5 r r r 4 n { %. .&.O.o.=.U ",
"X.X.X.&.O.&.X...E L F F F F F F F F F L F F F F F ` X.` ` X.X.E X.X.X.X.X.X.X.X.-.X.X.X.` S 9 5 * q _ o..._ q * 4 5 5 - * 4 V X.[ E [ | | X.v ",
"u u u u u u u u f f q j A F F F F F F F F F F F D q s g g g u w u u w w u u u w 9 u g f f k G L P E X.....[ P P L P L L L L m u g f w u q g p ",
"5 5 5 5 5 5 5 5 < 5 = 4 E X._ E L F F F F F F F G $ 5 5 - 5 < 4 5 5 5 5 5 5 5 5 ; 5 5 < 4 h X.-.-.&.X.X.X.[ &.X.X.-.-.=.,.,.m * 5 1 ; = < 5   ",
"5 5 4 4 4 5 5 5 1 5 5 4 E } X.X.&.X.X.X.X.X.-.-.D 4 9 5 - 7 5 5 5 5 5 5 5 5 5 5 5 5 4 < 5 h -.} } X.X.X.X.X.X.} X.&.X...o.-.n - 5 1 5 5 5 9 @ ",
"- - 4 ; ; 5 ; ; < = = 4 E X.-._ X.[ [ X...] ..X.D 4 - - 5 4 5 5 5 < < < < 4 4 4 5 4 4 5 1 u -.{ ....-.[ [ -...} ..X.[ [ [ -.n < 4 2 4 4 4 0 # ",
"S V S D Z Z Z V Z Z Z L / X.X.X.X.&.X.X.X.X.&.&./ V m Z m ; 5 4 5 m Z Z A m V V A d < 5 < g -.{ X.X.-._ &.....&.&.X.[ X.-.X.L Z V A j - r 4 + ",
"-.X.X.-.O.O.-.X.-.O.&.&.-.-.X.X.X.X.X.X.X.X.X.&.,.X.-.,.E 5 5 4 q E -.-.-.-.-.-.X.n 4 5 5 g X.} X.[ -.] &..._ X.` X.&.&.-.&.X.X.X.O.Z 5 r < + ",
"X.] ] .._ ] X._ X.X.X.X.X.[ [ X.X.X.&.&.X.X.X.X.Q _ X.o.L 4 4 4 < P X.Q Q _ ..Q ,.n * 5 5 g X.-.X...-.[ &.X.X.&.[ X.X.X._ _ &.-.[ O.Z ; r 5 # ",
"-.....X...X.&.X.X.X.X.[ -.X.X.&.X.X.&.&.X.X.X.X.-.X...} E 7 5 7 4 E &.Q R _ -.-.-.n < 5 4 g X...X.X.&.[ X.&.[ X.&.X.X.X.X.X.X.X./ =.Z 5 r 5 # ",
"-.X.[ [ [ X.X.[ R E R L -.X.X.&.X.X.&.&.&.X.X.X...[ X.} E 5 = 4 F F F F F L L R E j 4 5 5 h X...X...X.[ X.[ L L L L / X.X.X.X.X.X.,.F 5 5 5 + ",
"-.X.[ [ X.X.X.[ n n n n [ [ X.&.X.X.X.&.X.X.X.X.X.[ &.-.E 5 5 u F F F F F A n n V s < 5 4 k -...X.X.X.&.X.[ A V n Z L &.X.[ X.X._ O.Z - ; 4 + ",
"-.X.[ X.X.X.X.[ V V V V &.X.&.&.X.X.X.X.X.X.X.&.-.[ &.O.F - ; 7 F F F F F F V V V g 5 5 - s X.Q &.X.X.&.X.[ Z n n V / -.&.X.&.&.&.-.Z 5 5 4 > ",
"-...[ X.X.&.X._ V V V n X.X.X.&.[ X.X.X.X.[ X.&.&./ X.-.R 7 5 4 F F F F F Z n B S w < 5 < g -.-.-.X._ X.[ [ Z m V V L &.X.X.&.] ` O.V 4 5 4 : ",
"&.X.X.&.X.X.X.X.A A A L _ X.X.X./ ` [ / _ &.X...[ ` -.-.E 5 ; 4 g P X.-.X.A Z Z D g 0 g s g P L P L -.-.Q [ L Z Z A R X.&.&.X.X... .D 4 5 4 # ",
"-.X.X.&.X.X.X.X.X.X.[ X.&.&.&.X.Z n n n L &.X._ -.[ X...L 5 5 4 4 E X...-.] X.` -.X.X.-.` V 0 4 4 q _ &.[ -.&.-.[ [ X.X.&.X.[ X...| D 4 5 7 # ",
"-.X.X.&.[ [ X.[ X.&.&.X.[ [ X.X.F V Z Z L X.&.-.&.&.X.X.R 5 5 5 4 E -.......X._ ....-._ X.G * 5 4 w &.X.] / [ X.-.&.X.X.X.[ X.X._ | D 4 5 4 @ ",
"-.X.X.X.[ [ X.[ _ [ X.X.X.X.X.&.F n n n L -.&.X.Q [ X.O.E 5 5 7 4 P ,.&.X.&.-.O.&.&.-.Q -.G * r 5 0 [ _ X.[ -.O.X.X.X.X.X.X.X.X...| S < 5 4 @ ",
"-.X...X.X.X.&.X.X.X.X.&.&.&.&.&.F V Z Z L X.X._ ,.` ` ` F 5 5 4 7 G ` / ` / _ _ ` ` [ _ ` V 5 5 5 9 X.X.-.[ X.E X.X.X.X.X.X.X.[ .. .D - 5 4 @ ",
"&.X...X.X.X.X.[ X.[ [ X.X.X.X.[ ` ` &.X._ [ ] -.Z 4 9 0 q 4 5 5 1 9 q 0 9 0 4 6 9 7 4 6 q 4 4 5 = 9 X.] -.[ -.X.X.X.X.[ [ [ [ [ ] | N < 5 4 # ",
"-...X.X.X.X.&.X.X.X.X.X.&.&.&.&.X._ [ _ X.-.X...L * r 4 4 5 1 < 5 1 < - 5 5 < 4 5 5 5 5 5 5 5 5 r f X...] _ X.X.X.X.[ _ ` X.[ [ Q | D 4 5 4 # ",
"-...X.&.X.X.&.X.X.X.X.X.[ X.X.X.| X.-.X._ ....,.F & y 5 4 5 5 5 1 5 5 5 r 5 1 5 5 5 5 1 5 r ; 5 = 7 ` ..-.X.X.X.X.X.X.[ [ X.` / ] X.K 5 9 4 # ",
"X.X.X.X.X.X.X.X.| O.X.O.| X.X.&.X.X.O.X.-.} O.X.D 6 $ 6 4 4 4 4 4 5 4 - 4 5 4 5 < 4 4 4 4 4 4 4 , g P X.-.` O.O.| | X.X.X.X.X.X.#.E K q 0 9 2 ",
"u u u u u i u u u u u u u u u g u u u u g w g u k P R E L P P L L L L L L L F F G P P L L P L F L D g u w s s q u u u u u u u u g f g 4 9 q 3 ",
"< < 5 5 < 5 < < 5 5 5 < 5 4 < 4 5 - 4 4 4 - 5 * s -.&.-.-.&.X.-.-.-.-.-.,.-.-.-.-.-.-.X.X.&.-.X.-.P 4 5 - 7 5 5 < < < < 4 4 4 4 - 4 q 7 u q 2 ",
"5 5 5 5 5 5 5 5 5 5 5 5 7 7 5 5 5 5 7 7 4 5 7 - d -.R Q &.X.X.-.X.X.[ [ X.X.X.&.X.X.X...] ..X.X.] E 4 r 5 5 5 5 5 5 5 5 7 7 7 7 9 7 q 5 q 0 # ",
"= = = = = = = = = 5 5 5 ; ; 5 5 - 5 ; 5 - ; 5 * g -.&.X.[ [ -...[ [ [ [ X.X.[ X.X.X.X.-.X.X.&.X.=./ 4 5 5 * 4 4 - - - = = - - - 4 4 8 4 0 4 X ",
"S S D S S S S S V V S M 7 5 5 - m G S D V D D V D &.-.-.` D L F A F F F Q -.....X.R L L F E [ [ o.R 4 5 5 4 V D V V V S S V V V V V K D K Z a ",
"o.O.O.O.o.o.O.O.,.O.-.X.q 6 4 < L -.X.=.=.-.o.=.-.X.X.O.` n n B F F F F F -.=...-.L V n n F [ X.{ L 5 r 5 4 E -.=.=.=.-.X.......] | >.-.-.&.C ",
"..X.X.X...] ..X...] X.X.4 5 5 ; D &.[ X.X.-.] X.X.} -.Q _ B B V D F F F I &.&.[ -.F V B B F X.X.&.P = r 1 4 E &...X.[ [ ` _ _ Q Q } +.%.&.>.U ",
"&.&.X.[ -.-.X.] &.&.&.` 9 5 5 < F X.X._ &.] _ &.X.X.X.&.E V n n B Q X._ -.X.X.O.-.L n n n Z X.X.X.F 7 5 5 9 P X.[ ` X.] Q X.....&._ / Q -.$.U ",
"X.X.X._ R R L R &.X...` q 5 5 4 F X.X.X.&.X.[ &.X.X.X.&.] L F F J Q X._ &.R L R L L F L L L &.[ ,.L 4 = = 5 E -.&._ X.] X.-./ A L F I ..-.-.U ",
"X.&.X._ B B B Z X.X...[ q 5 5 4 F &.&.X.X.X.X.[ ..X...X.X.&.&.-.-.X.X.X.X.A B V n L ` -.| ..-.....L 4 r r 5 ` X.X.X.-.X.] [ F n n j Z _ ] -.T ",
"[ &.X.[ n B Z A &.X...[ 9 5 5 4 A &.-.X.X.X.X.[ &.X.X.X._ X._ ..-._ [ X.&.A B V n L O.O._ ] X...-.E < 5 5 4 ` -.` ` &.] _ X.L m V j Z [ Q &.Y ",
"X.&.[ / n B V Z X.X.X.X.9 5 5 < L X.O.X.-.-.-.X.X.X.&.-.&.,...-.&._ X.X.X.A B B n L | ] X.-.-.-.-.L 7 5 < 4 E O.-.X.X.[ X.&.L n n j Z X.Q &.Y ",
"&.&.[ _ Z A Z A X.X.X.` 9 5 5 < V F L L L L E L P P P L L X.Q ..&...-.X.X.L A Z Z R X...-.[ F F P S g w q g L X./ R X.X.X.X.L Z Z V H _ Q %.T ",
"X.&.X.X._ X.X.&.X.X...` 9 5 5 4 < 4 < 4 4 4 7 4 4 4 < 4 q ` | O.] Q X.X.-._ X.` _ X.X.[ [ S 4 < 4 w P X.X._ V n n V E | | X.` [ X.W #._ Q ] U ",
"X.&.X.[ X.X.X.X.[ ....` 9 5 5 4 5 5 1 5 7 7 5 5 5 5 5 4 q X.` Q -.] X.X.-.[ X.X.[ X.X.[ &.G 5 1 5 w [ O.} X.V V V V L ` X.X.` ` Q _ #.Q ] ] U ",
"&.X.X.X.X.X.X.X.X.X.&.[ 7 1 = ; 1 5 5 5 5 1 1 < = 5 = * q [ -.=.] -.&.] X.X.....X.&...-.,.Z 4 4 4 q X.{ =.-.V V V V _ ,...] X.&.%. .$.Q / [ C ",
"[ [ ` ` ` ` ` ` / [ ` P f 7 7 9 4 7 7 7 7 7 7 7 7 9 0 w k L ` [ E _ ` ` ` ` ` E ` X.E _ ` m 7 5 1 u E E X.E V k j m L ` / ` / ` P E / ` ` ` c ",
"7 7 7 7 7 7 7 7 0 0 4 q P ` ` ` ` X.` ` ` ` E E | ` E P G 9 0 7 7 4 0 0 7 7 7 7 4 4 6 7 q 5 5 5 < 5 9 7 7 7 7 7 7 7 7 4 4 0 7 4 9 5 4 4 7 0 + ",
"5 5 5 5 5 5 5 5 ; 5 4 4 ` X.X.-.X.&.&.&.&.-.-.&.o.X.&.-.` 5 5 = 5 ; 5 5 5 5 5 1 5 5 5 1 < = 1 ; 5 5 5 5 ; 5 5 5 - 5 5 5 5 5 5 5 ; * - 5 < 4 X ",
"5 5 5 5 5 5 5 5 r r 5 4 ` X...X._ X.X.X.X.X.X.X.&.&.X.X.P < 5 1 5 5 5 1 1 5 5 1 5 1 1 5 5 r u r 7 5 5 = = 5 5 5 5 5 5 5 5 5 - 5 t 1 5 5 = 5 o ",
"4 4 4 4 4 4 4 4 ; - * 4 ` &.-.X.&.&.X.X.X.X.X.X.[ X.X.X.E 4 7 1 * 5 7 4 4 4 4 < 4 < < < 4 4 4 * 4 4 4 5 5 7 < 4 7 4 4 4 4 5 5 5 5 . - 4 - 7 # ",
"L P P P P P P L P E ` L [ ` X.X.L D A A R X.&.X.[ X.&.-.E 7 5 = q D P F L L F L L L P P P P P P P F j j g n D L P L L L L F h 5 5 < g G P L l ",
"&.&.&.&.-.-.&.&.-...&.X.] &.-.` D Z n B L ..-...X...X.O.L 7 5 5 6 L -.X.-.-.X.-.X.&.&.&.&.&.X.&.&.&.V V V Z X.X.-.X.-.-.O.X.S - 5 < k ` -.X.U ",
"X.X.X.X.[ X.X.X.X.X.X.X.X.X.X.X.D n V V L &.....=._ _ _ / 4 ; y 4 P O.X.-.X.[ #.` X.X.&.X.X.&.X.[ / m m m V [ X.} _ X.&.o.-.m * 5 < g &._ %.U ",
"X.X.X.X.X.&.X.[ [ [ [ _ X.X.X.X.Z B V V L X.X.&.X.X.-.&.L 6 4 ; 4 L -.X.Q _ [ X.` | ` X.X.[ &.[ X.[ V Z Z Z ` X.X.[ X.X...-.m ; 5 < g &._ %.U ",
"X.X.X.X.X.&.X.[ F F L A X.X.X.X.R L L L R X.X.&.A n m k j V V m Z [ X.-.[ &.-.&.X.E F F L R &.[ ] [ L L L L _ X.} [ X.X.{ O.m 5 7 < g -._ %.U ",
"X.X.X.X.&.&.X._ B B V B X.X.X.X.X.X.X.&.X.X.X.X.D 4 * * 0 X.-.-.-.-._ &.X.&...} X.F B n n A X.[ X.&.&.-.-.&.-.-.} [ X.X.{ O.m 5 7 < g -.X.-.U ",
"X.X.[ [ X.&.X._ V n n n X.X.X.X.] X.&.-.X...X.X.K 4 5 5 0 X.Q { ..-.] -.X.X...X.X.A B B B L -....._ ..] ] ..] [ O.X.&.X...-.m = 7 < g -.X.-.U ",
"X.X.X.X.X.X.X.[ V V V V ` X.X.` ..&.] X..._ X.-.G - 5 5 g D D D R -.&.X.X.[ -.-.| F Z V Z L X.X.-.&.-.X.] -.X.-.O.X.&.X...-.m = 5 < k -.} %.U ",
"X.X.X.[ X.X.X.X.L F L L _ [ X.X.&.-.[ X.X._ &.&.P 4 5 1 V D D F F ] ] Q &.L S S D n h g g k D D V D [ [ [ X.L R L L [ X...-.m = 5 < g -.} %.U ",
"X.&.&.X.X.X.X.X.[ X.X.&.X.X.&.X.[ &.] X.X.` &.X.D 4 5 < h F F F F F R -.,.s 4 - 4 4 - < 4 - 4 4 % q ` &.&.X.Z V n V E X.X.-.m = 5 < g -.} -.U ",
"X.X.[ X.X.X.X.X.-.] X.&._ X.-.` X.X.X.X.X.X.X.X.F 5 5 < 9 ` F F F F F Q X.9 r e 5 5 5 5 5 5 5 5 = 0 X.{ } -.n V V n R } ..X.m 5 t 5 d -.Q %.U ",
"-.-.&.&.-.-.-.-.-.X.&.X.X.] X.` X.X.X.X.X.X.X.X.Z - 5 4 u [ -.X.X._ L E -.f 5 ; < < < < < < < < 5 g X.-.X.&.Z D V V _ -.-.X.m - ; < b -.&.-.U ",
"L L L L L L L L E L P F X.X.&.X.X.&.X.X.&.X.[ &.L 5 5 7 u G A L L F L F F g f 0 g g g g g g g g s g D P P P m h k k D L F P k 7 5 1 g P L L z ",
"5 5 5 5 5 5 5 5 4 * 4 4 E | -.X.X.X.X.X.&.X.X.&.D - 5 < = 7 4 4 4 4 4 w 4 D -.X.` ` ` ` ` ` F Z Z P w 5 - 4 4 5 4 * 4 4 4 7 4 < 5 . 5 5 5 4 O ",
"; ; ; ; ; ; ; ; 7 5 5 4 ` X.X._ X.&.X.X.X.X.X.&.F 4 5 5 5 7 4 5 - 5 5 7 4 F _ D D A Z D D Z Z A o.F 4 5 5 5 5 5 5 5 5 5 5 5 5 4 5 1 9 5 5 4 O ",
"5 5 5 5 5 5 5 5 < 5 5 4 ` X.&.&.[ &.X.[ X.[ X.&.Z - 5 4 1 5 4 5 5 5 5 5 4 F L Z Z D D Z A Z D A o.L 5 r 5 5 5 5 5 5 5 5 5 5 5 5 5 1 9 5 5 5 @ ",
"4 4 4 4 4 4 4 4 5 5 5 5 P _ ....[ &.&.[ X.X.X.&.L 5 5 4 5 1 7 5 5 - 5 5 4 F E F D A A D D Z Z F o.P 5 5 1 4 5 5 5 5 5 5 5 5 5 5 5 1 5 5 5 5 @ "
};
